<svg width="361" height="63" viewBox="0 0 361 63" fill="none" xmlns="http://www.w3.org/2000/svg">
<path d="M51.0116 1.072V46H40.0676V19.056L30.0196 46H21.1876L11.0756 18.992V46H0.131635V1.072H13.0596L25.6676 32.176L38.1476 1.072H51.0116ZM95.3616 10.288L72.9616 62.96H61.1856L69.3776 44.784L54.8496 10.288H67.0736L75.3296 32.624L83.5216 10.288H95.3616Z" fill="#7353BA"/>
<path d="M97.4631 23.472C97.4631 19.0347 98.4231 15.088 100.343 11.632C102.263 8.13333 104.93 5.424 108.343 3.504C111.799 1.54133 115.703 0.559998 120.055 0.559998C125.388 0.559998 129.954 1.968 133.751 4.784C137.548 7.6 140.087 11.44 141.367 16.304H129.335C128.439 14.4267 127.159 12.9973 125.495 12.016C123.874 11.0347 122.018 10.544 119.927 10.544C116.556 10.544 113.826 11.7173 111.735 14.064C109.644 16.4107 108.599 19.5467 108.599 23.472C108.599 27.3973 109.644 30.5333 111.735 32.88C113.826 35.2267 116.556 36.4 119.927 36.4C122.018 36.4 123.874 35.9093 125.495 34.928C127.159 33.9467 128.439 32.5173 129.335 30.64H141.367C140.087 35.504 137.548 39.344 133.751 42.16C129.954 44.9333 125.388 46.32 120.055 46.32C115.703 46.32 111.799 45.36 108.343 43.44C104.93 41.4773 102.263 38.768 100.343 35.312C98.4231 31.856 97.4631 27.9093 97.4631 23.472ZM164.325 46.512C160.826 46.512 157.669 45.7653 154.853 44.272C152.08 42.7787 149.882 40.6453 148.261 37.872C146.682 35.0987 145.893 31.856 145.893 28.144C145.893 24.4747 146.704 21.2533 148.325 18.48C149.946 15.664 152.165 13.5093 154.981 12.016C157.797 10.5227 160.954 9.776 164.453 9.776C167.952 9.776 171.109 10.5227 173.925 12.016C176.741 13.5093 178.96 15.664 180.581 18.48C182.202 21.2533 183.013 24.4747 183.013 28.144C183.013 31.8133 182.181 35.056 180.517 37.872C178.896 40.6453 176.656 42.7787 173.797 44.272C170.981 45.7653 167.824 46.512 164.325 46.512ZM164.325 37.04C166.416 37.04 168.186 36.272 169.637 34.736C171.13 33.2 171.877 31.0027 171.877 28.144C171.877 25.2853 171.152 23.088 169.701 21.552C168.293 20.016 166.544 19.248 164.453 19.248C162.32 19.248 160.549 20.016 159.141 21.552C157.733 23.0453 157.029 25.2427 157.029 28.144C157.029 31.0027 157.712 33.2 159.077 34.736C160.485 36.272 162.234 37.04 164.325 37.04ZM210.579 9.904C214.76 9.904 218.088 11.2693 220.563 14C223.08 16.688 224.339 20.4 224.339 25.136V46H213.459V26.608C213.459 24.2187 212.84 22.3627 211.603 21.04C210.366 19.7173 208.702 19.056 206.611 19.056C204.52 19.056 202.856 19.7173 201.619 21.04C200.382 22.3627 199.763 24.2187 199.763 26.608V46H188.819V10.288H199.763V15.024C200.872 13.4453 202.366 12.208 204.243 11.312C206.12 10.3733 208.232 9.904 210.579 9.904ZM251.848 36.72V46H246.28C242.312 46 239.219 45.04 237 43.12C234.781 41.1573 233.672 37.9787 233.672 33.584V19.376H229.32V10.288H233.672V1.584H244.616V10.288H251.784V19.376H244.616V33.712C244.616 34.7787 244.872 35.5467 245.384 36.016C245.896 36.4853 246.749 36.72 247.944 36.72H251.848ZM255.768 28.08C255.768 24.4107 256.451 21.1893 257.816 18.416C259.224 15.6427 261.123 13.5093 263.512 12.016C265.901 10.5227 268.568 9.776 271.512 9.776C274.029 9.776 276.227 10.288 278.104 11.312C280.024 12.336 281.496 13.68 282.52 15.344V10.288H293.464V46H282.52V40.944C281.453 42.608 279.96 43.952 278.04 44.976C276.163 46 273.965 46.512 271.448 46.512C268.547 46.512 265.901 45.7653 263.512 44.272C261.123 42.736 259.224 40.5813 257.816 37.808C256.451 34.992 255.768 31.7493 255.768 28.08ZM282.52 28.144C282.52 25.4133 281.752 23.2587 280.216 21.68C278.723 20.1013 276.888 19.312 274.712 19.312C272.536 19.312 270.68 20.1013 269.144 21.68C267.651 23.216 266.904 25.3493 266.904 28.08C266.904 30.8107 267.651 32.9867 269.144 34.608C270.68 36.1867 272.536 36.976 274.712 36.976C276.888 36.976 278.723 36.1867 280.216 34.608C281.752 33.0293 282.52 30.8747 282.52 28.144ZM299.206 28.144C299.206 24.432 299.952 21.1893 301.446 18.416C302.982 15.6427 305.094 13.5093 307.782 12.016C310.512 10.5227 313.627 9.776 317.126 9.776C321.606 9.776 325.339 10.9493 328.326 13.296C331.355 15.6427 333.339 18.9493 334.278 23.216H322.63C321.648 20.4853 319.75 19.12 316.934 19.12C314.928 19.12 313.328 19.9093 312.134 21.488C310.939 23.024 310.342 25.2427 310.342 28.144C310.342 31.0453 310.939 33.2853 312.134 34.864C313.328 36.4 314.928 37.168 316.934 37.168C319.75 37.168 321.648 35.8027 322.63 33.072H334.278C333.339 37.2533 331.355 40.5387 328.326 42.928C325.296 45.3173 321.563 46.512 317.126 46.512C313.627 46.512 310.512 45.7653 307.782 44.272C305.094 42.7787 302.982 40.6453 301.446 37.872C299.952 35.0987 299.206 31.856 299.206 28.144ZM360.036 36.72V46H354.468C350.5 46 347.406 45.04 345.188 43.12C342.969 41.1573 341.86 37.9787 341.86 33.584V19.376H337.508V10.288H341.86V1.584H352.804V10.288H359.972V19.376H352.804V33.712C352.804 34.7787 353.06 35.5467 353.572 36.016C354.084 36.4853 354.937 36.72 356.132 36.72H360.036Z" fill="white"/>
</svg>
